<?xml version="1.0" encoding="UTF-8" standalone="no"?>
<!DOCTYPE svg PUBLIC "-//W3C//DTD SVG 1.1//EN"
 "http://www.w3.org/Graphics/SVG/1.1/DTD/svg11.dtd">
<!-- Generated by graphviz version 2.26.3 (20100126.1600)
 -->
<!-- Title: G Pages: 1 -->
<svg width="434pt" height="258pt"
 viewBox="0.00 0.00 434.00 258.00" xmlns="http://www.w3.org/2000/svg" xmlns:xlink="http://www.w3.org/1999/xlink">
<g id="graph1" class="graph" transform="scale(1 1) rotate(0) translate(4 254)">
<title>G</title>
<polygon fill="white" stroke="white" points="-4,5 -4,-254 431,-254 431,5 -4,5"/>
<g id="graph2" class="cluster"><title>cluster_Global</title>
<polyline fill="none" stroke="gray" points="178,-8 406,-8 "/>
<path fill="none" stroke="gray" d="M406,-8C412,-8 418,-14 418,-20"/>
<polyline fill="none" stroke="gray" points="418,-20 418,-230 "/>
<path fill="none" stroke="gray" d="M418,-230C418,-236 412,-242 406,-242"/>
<polyline fill="none" stroke="gray" points="406,-242 178,-242 "/>
<path fill="none" stroke="gray" d="M178,-242C172,-242 166,-236 166,-230"/>
<polyline fill="none" stroke="gray" points="166,-230 166,-20 "/>
<path fill="none" stroke="gray" d="M166,-20C166,-14 172,-8 178,-8"/>
<text text-anchor="middle" x="292" y="-228.1" font-family="Times Roman,serif" font-size="11.00" fill="gray">\</text>
</g>
<g id="graph3" class="cluster"><title>cluster_\Instafeed</title>
<polyline fill="none" stroke="gray" points="186,-16 398,-16 "/>
<path fill="none" stroke="gray" d="M398,-16C404,-16 410,-22 410,-28"/>
<polyline fill="none" stroke="gray" points="410,-28 410,-200 "/>
<path fill="none" stroke="gray" d="M410,-200C410,-206 404,-212 398,-212"/>
<polyline fill="none" stroke="gray" points="398,-212 186,-212 "/>
<path fill="none" stroke="gray" d="M186,-212C180,-212 174,-206 174,-200"/>
<polyline fill="none" stroke="gray" points="174,-200 174,-28 "/>
<path fill="none" stroke="gray" d="M174,-28C174,-22 180,-16 186,-16"/>
<text text-anchor="middle" x="292" y="-198.1" font-family="Times Roman,serif" font-size="11.00" fill="gray">Instafeed</text>
</g>
<g id="graph4" class="cluster"><title>cluster_\Instafeed\Adapter</title>
<polyline fill="none" stroke="gray" points="194,-24 280,-24 "/>
<path fill="none" stroke="gray" d="M280,-24C286,-24 292,-30 292,-36"/>
<polyline fill="none" stroke="gray" points="292,-36 292,-170 "/>
<path fill="none" stroke="gray" d="M292,-170C292,-176 286,-182 280,-182"/>
<polyline fill="none" stroke="gray" points="280,-182 194,-182 "/>
<path fill="none" stroke="gray" d="M194,-182C188,-182 182,-176 182,-170"/>
<polyline fill="none" stroke="gray" points="182,-170 182,-36 "/>
<path fill="none" stroke="gray" d="M182,-36C182,-30 188,-24 194,-24"/>
<text text-anchor="middle" x="237" y="-168.1" font-family="Times Roman,serif" font-size="11.00" fill="gray">Adapter</text>
</g>
<g id="graph5" class="cluster"><title>cluster_\Instafeed\Adapter\Instagram</title>
<polyline fill="none" stroke="gray" points="202,-78 272,-78 "/>
<path fill="none" stroke="gray" d="M272,-78C278,-78 284,-84 284,-90"/>
<polyline fill="none" stroke="gray" points="284,-90 284,-140 "/>
<path fill="none" stroke="gray" d="M284,-140C284,-146 278,-152 272,-152"/>
<polyline fill="none" stroke="gray" points="272,-152 202,-152 "/>
<path fill="none" stroke="gray" d="M202,-152C196,-152 190,-146 190,-140"/>
<polyline fill="none" stroke="gray" points="190,-140 190,-90 "/>
<path fill="none" stroke="gray" d="M190,-90C190,-84 196,-78 202,-78"/>
<text text-anchor="middle" x="237" y="-138.1" font-family="Times Roman,serif" font-size="11.00" fill="gray">Instagram</text>
</g>
<!-- \\Instafeed\\Adapter\\Instagram\\Exception -->
<g id="node5" class="node"><title>\\Instafeed\\Adapter\\Instagram\\Exception</title>
<polygon fill="none" stroke="black" points="275,-122 199,-122 199,-86 275,-86 275,-122"/>
<text text-anchor="middle" x="237" y="-101.1" font-family="Courier,monospace" font-size="11.00">Exception</text>
</g>
<!-- \\Exception -->
<g id="node9" class="node"><title>\\Exception</title>
<ellipse fill="none" stroke="black" cx="63" cy="-104" rx="62.9325" ry="18.3848"/>
<text text-anchor="middle" x="63" y="-100.4" font-family="Times Roman,serif" font-size="14.00" fill="gray">\Exception</text>
</g>
<!-- \\Instafeed\\Adapter\\Instagram\\Exception&#45;&gt;\\Exception -->
<g id="edge6" class="edge"><title>\\Instafeed\\Adapter\\Instagram\\Exception&#45;&gt;\\Exception</title>
<path fill="none" stroke="black" d="M198.384,-104C180.06,-104 157.538,-104 136.16,-104"/>
<polygon fill="none" stroke="black" points="136.11,-100.5 126.11,-104 136.11,-107.5 136.11,-100.5"/>
</g>
<!-- \\Instafeed\\Adapter\\Instagram -->
<g id="node6" class="node"><title>\\Instafeed\\Adapter\\Instagram</title>
<polygon fill="none" stroke="black" points="275,-68 199,-68 199,-32 275,-32 275,-68"/>
<text text-anchor="middle" x="237" y="-47.1" font-family="Courier,monospace" font-size="11.00">Instagram</text>
</g>
<!-- \\Instafeed\\Tag -->
<g id="node7" class="node"><title>\\Instafeed\\Tag</title>
<polygon fill="none" stroke="black" points="402,-68 348,-68 348,-32 402,-32 402,-68"/>
<text text-anchor="middle" x="375" y="-47.1" font-family="Courier,monospace" font-size="11.00">Tag</text>
</g>
<!-- \\Instafeed\\Tag&#45;&gt;\\Instafeed\\Adapter\\Instagram -->
<g id="edge8" class="edge"><title>\\Instafeed\\Tag&#45;&gt;\\Instafeed\\Adapter\\Instagram</title>
<path fill="none" stroke="black" d="M347.736,-50C330.13,-50 306.718,-50 285.957,-50"/>
<polygon fill="none" stroke="black" points="285.702,-46.5001 275.702,-50 285.702,-53.5001 285.702,-46.5001"/>
</g>
</g>
</svg>
